<svg width="24" height="25" viewBox="0 0 24 25" fill="none" xmlns="http://www.w3.org/2000/svg">
<g id="u:bell">
<path id="Vector" d="M18 13.3655V10.1855C17.9986 8.76867 17.4958 7.39802 16.5806 6.31632C15.6655 5.23463 14.3971 4.51169 13 4.27555V3.18555C13 2.92033 12.8946 2.66598 12.7071 2.47844C12.5196 2.2909 12.2652 2.18555 12 2.18555C11.7348 2.18555 11.4804 2.2909 11.2929 2.47844C11.1054 2.66598 11 2.92033 11 3.18555V4.27555C9.60294 4.51169 8.33452 5.23463 7.41939 6.31632C6.50425 7.39802 6.00144 8.76867 6 10.1855V13.3655C5.41645 13.5719 4.911 13.9536 4.55294 14.4585C4.19488 14.9633 4.00174 15.5666 4 16.1855V18.1855C4 18.4508 4.10536 18.7051 4.29289 18.8927C4.48043 19.0802 4.73478 19.1855 5 19.1855H8.14C8.37028 20.0329 8.873 20.781 9.5706 21.3143C10.2682 21.8476 11.1219 22.1365 12 22.1365C12.8781 22.1365 13.7318 21.8476 14.4294 21.3143C15.127 20.781 15.6297 20.0329 15.86 19.1855H19C19.2652 19.1855 19.5196 19.0802 19.7071 18.8927C19.8946 18.7051 20 18.4508 20 18.1855V16.1855C19.9983 15.5666 19.8051 14.9633 19.4471 14.4585C19.089 13.9536 18.5835 13.5719 18 13.3655ZM8 10.1855C8 9.12468 8.42143 8.10726 9.17157 7.35712C9.92172 6.60697 10.9391 6.18555 12 6.18555C13.0609 6.18555 14.0783 6.60697 14.8284 7.35712C15.5786 8.10726 16 9.12468 16 10.1855V13.1855H8V10.1855ZM12 20.1855C11.651 20.1834 11.3086 20.09 11.0068 19.9146C10.7051 19.7392 10.4545 19.4878 10.28 19.1855H13.72C13.5455 19.4878 13.2949 19.7392 12.9932 19.9146C12.6914 20.09 12.349 20.1834 12 20.1855ZM18 17.1855H6V16.1855C6 15.9203 6.10536 15.666 6.29289 15.4784C6.48043 15.2909 6.73478 15.1855 7 15.1855H17C17.2652 15.1855 17.5196 15.2909 17.7071 15.4784C17.8946 15.666 18 15.9203 18 16.1855V17.1855Z" fill="black"/>
</g>
</svg>
