<svg width="41" height="42" viewBox="0 0 41 42" fill="none" xmlns="http://www.w3.org/2000/svg">
<circle cx="20.5" cy="21" r="20" fill="#33BEA5"/>
<path d="M20.1309 31.5332C16.0384 31.5332 13.3223 31.0273 11.9824 30.0156V23.7539C12.0189 23.763 12.151 23.804 12.3789 23.877C12.6159 23.9499 12.9121 24.041 13.2676 24.1504C14.097 24.4056 14.9674 24.6471 15.8789 24.875C16.7995 25.0938 17.5378 25.2031 18.0938 25.2031C19.0052 25.2031 19.4609 24.9251 19.4609 24.3691C19.4609 23.9408 19.069 23.485 18.2852 23.002C17.9297 22.7832 17.5241 22.5553 17.0684 22.3184C16.6217 22.0814 16.166 21.8171 15.7012 21.5254C14.5618 20.8236 13.6458 20.0033 12.9531 19.0645C12.2695 18.1257 11.9277 16.9408 11.9277 15.5098C11.9277 12.3835 13.5775 10.2826 16.877 9.20703C18.2168 8.76953 19.7617 8.55078 21.5117 8.55078C23.2708 8.55078 25.1074 8.7513 27.0215 9.15234C27.4134 9.23438 27.6732 9.29362 27.8008 9.33008V15.6055C25.3216 15.0768 23.5397 14.8125 22.4551 14.8125C22.0358 14.8125 21.7214 14.8854 21.5117 15.0312C21.3021 15.1771 21.1973 15.3411 21.1973 15.5234C21.1973 15.7057 21.2884 15.8971 21.4707 16.0977C21.653 16.2891 21.9674 16.485 22.4141 16.6855C22.8607 16.877 23.3802 17.1139 23.9727 17.3965C24.5742 17.6699 25.1348 17.9661 25.6543 18.2852C27.9876 19.7161 29.1543 21.6712 29.1543 24.1504C29.1543 26.502 28.3613 28.3203 26.7754 29.6055C25.1712 30.8815 22.9564 31.5241 20.1309 31.5332Z" fill="white"/>
</svg>
